<svg width="7" height="8" viewBox="0 0 7 8" fill="none" xmlns="http://www.w3.org/2000/svg">
<path d="M0.334523 2.96833C0.34155 3.05469 0.274488 3.13013 0.184839 3.1368C0.0952895 3.14357 0.0168838 3.07906 0.00995676 2.9926C-0.0884269 1.77322 0.560002 0.606258 1.6619 0.0195859C1.74061 -0.0222916 1.83969 0.00517539 1.88316 0.0810966C1.92663 0.156921 1.89812 0.252379 1.81941 0.294256C0.828851 0.821546 0.245977 1.87119 0.334523 2.96833Z" fill="white"/>
<path d="M6.66133 2.96831C6.74987 1.87108 6.1671 0.821531 5.17654 0.294242C5.09783 0.252364 5.06922 0.156907 5.11279 0.0810821C5.15626 0.00525764 5.25524 -0.0223061 5.33395 0.0196682C6.43585 0.606244 7.08438 1.77321 6.98599 2.99259C6.97897 3.07934 6.90026 3.14346 6.81101 3.13679C6.72136 3.13012 6.6544 3.05468 6.66133 2.96831Z" fill="white"/>
<path fill-rule="evenodd" clip-rule="evenodd" d="M6.43018 5.96077H6.25469C5.78998 5.49025 5.53489 4.87611 5.53489 4.22415V2.90197C5.53489 2.13028 5.06967 1.4613 4.39534 1.14156V0.86283C4.39534 0.387089 3.99368 3.62663e-05 3.49995 3.62663e-05C3.00622 3.62663e-05 2.60466 0.387089 2.60466 0.86283V1.14156C1.93033 1.4613 1.46511 2.13028 1.46511 2.90197V4.22415C1.46511 4.87611 1.21002 5.49025 0.745307 5.96077H0.569722C0.255597 5.96077 0 6.2071 0 6.50982C0 6.81254 0.255597 7.05887 0.569722 7.05887H2.60466V7.1373C2.60466 7.61295 3.00622 8 3.49995 8C3.99368 8 4.39534 7.61295 4.39534 7.1373V7.05887H6.43018C6.7444 7.05887 7 6.81254 7 6.50982C7 6.2071 6.7444 5.96077 6.43018 5.96077ZM2.93023 0.86283C2.93023 0.560112 3.18582 0.313779 3.49995 0.313779C3.81418 0.313779 4.06977 0.560112 4.06977 0.86283V1.0196C3.69862 0.915152 3.30148 0.915056 2.93023 1.0196V0.86283ZM4.06977 7.1373C4.06977 7.44002 3.81418 7.68626 3.49995 7.68626C3.18582 7.68626 2.93023 7.44002 2.93023 7.1373V7.05887H4.06977V7.1373Z" fill="white"/>
<path d="M5.01175 1.12496C5.60306 1.43976 5.95101 2.06647 5.89811 2.72162C5.89118 2.80799 5.95814 2.88352 6.04779 2.8902C6.13774 2.89697 6.21575 2.83207 6.22277 2.74599C6.28542 1.9685 5.8719 1.22447 5.16916 0.850382C5.09056 0.808504 4.99147 0.835971 4.948 0.911796C4.90453 0.98762 4.93304 1.08308 5.01175 1.12496Z" fill="white"/>
<path d="M0.773045 2.74599C0.779671 2.8282 0.850949 2.89068 0.935177 2.89068C1.03065 2.89068 1.10494 2.81243 1.09761 2.72162C1.0448 2.06647 1.39266 1.43976 1.98397 1.12495C2.06267 1.08307 2.09119 0.987714 2.04772 0.911889C2.00425 0.835968 1.90516 0.808501 1.82655 0.850379C1.12381 1.22438 0.7103 1.9685 0.773045 2.74599Z" fill="white"/>
</svg>
