<svg width="39" height="39" viewBox="0 0 39 39" fill="none" xmlns="http://www.w3.org/2000/svg">
<path fill-rule="evenodd" clip-rule="evenodd" d="M19.5 39C30.2695 39 39 30.2695 39 19.5C39 8.73047 30.2695 0 19.5 0C8.73047 0 0 8.73047 0 19.5C0 30.2695 8.73047 39 19.5 39ZM17.3885 16.4546V29H20.8679V16.4546H17.3885ZM17.8051 14.3228C18.1753 14.6658 18.6191 14.8374 19.1364 14.8374C19.6537 14.8374 20.0947 14.6658 20.4595 14.3228C20.8298 13.9744 21.0149 13.5579 21.0149 13.0732C21.0149 12.594 20.8298 12.1829 20.4595 11.8398C20.0947 11.4915 19.6537 11.3171 19.1364 11.3171C18.6191 11.3171 18.1753 11.4915 17.8051 11.8398C17.4402 12.1829 17.2578 12.594 17.2578 13.0732C17.2578 13.5579 17.4402 13.9744 17.8051 14.3228Z" fill="black"/>
</svg>
