<svg width="38" height="49" viewBox="0 0 38 49" fill="none" xmlns="http://www.w3.org/2000/svg">
<path d="M1.41296 12.7242C0.924429 12.7242 0.505685 12.378 0.366103 11.9625C0.156731 11.3393 0.505685 10.7161 1.06401 10.5776L35.75 0.32949C36.3781 0.121757 36.9364 0.467979 37.1458 1.02193C37.2854 1.64513 37.0062 2.26833 36.3781 2.40682L1.69213 12.655C1.62234 12.7242 1.48275 12.7242 1.41296 12.7242ZM37.9135 7.60014C38.0531 8.22334 37.7739 8.77718 37.1458 8.98491L24.6533 12.4741V47.6237C24.6533 48.2469 24.1647 48.7316 23.5366 48.7316H17.2555C16.6273 48.7316 16.1388 48.2469 16.1388 47.6237V14.8527L1.69213 18.8875C1.62234 18.8875 1.55255 18.9568 1.41296 18.9568C0.924429 18.9568 0.505685 18.6106 0.366103 18.1258C0.226522 17.5719 0.505685 17.0179 1.1338 16.8102L36.5875 6.83903C37.1458 6.70054 37.7739 7.04619 37.9135 7.60014ZM22.42 13.0981L18.3428 14.2364L18.3721 14.4553V46.5846H22.42L22.42 13.0981Z" fill="#AA71FC"/>
</svg>
