<svg width="69" height="65" viewBox="0 0 69 65" fill="none" xmlns="http://www.w3.org/2000/svg">
<path d="M64.0954 1.29493C63.982 0.474291 63.2249 -0.0990681 62.4042 0.0142922L54.7795 0.308853C53.9588 0.422213 53.3855 1.17937 53.4988 2C53.6122 2.82063 54.3694 3.39399 55.19 3.28063L59.1803 3.48813C51.4233 13.3346 45.027 20.8918 36.5 25.5C27.1567 30.5493 18.2424 32.2986 2 33.5L2.22129 36.4918C18.6511 35.2766 28.048 33.4777 37.9263 28.1392C46.9807 23.246 53.6957 15.313 61.613 5.24805L62.0271 9.91051C62.1404 10.7311 62.8976 11.3045 63.7182 11.1911C64.5388 11.0778 65.1122 10.3206 64.9988 9.5L64.0954 1.29493Z" fill="black"/>
<path d="M50 27C50 26.4478 50.4478 26 51 26L60 16.5C60.5522 16.5 61 16.9478 61 17.5V61H67C68.1046 61 69 61.8955 69 63C69 64.1045 68.1046 65 67 65H2C0.895386 65 0 64.1045 0 63C0 61.8955 0.895386 61 2 61H6V45C6 44.4478 6.44775 44 7 44H14C14.5522 44 15 44.4478 15 45V61H20V43.5386C20 43.0498 20.4478 42.6538 21 42.6538L30 40C30.5522 40 31 40.396 31 40.8845V61H35V39C35 38.5789 35.2603 38.2185 35.6288 38.071C35.6716 38.054 35.715 38.0377 35.7585 38.0213C35.8396 37.9908 35.9209 37.9602 35.9993 37.9246C36.1022 37.8777 36.1997 37.8225 36.2842 37.7473L44.7158 30.2527C44.8989 30.0898 45.1438 29.9802 45.3712 30.071C45.7397 30.2185 46 30.5789 46 31V61H50V27Z" fill="black"/>
</svg>
