<svg width="48" height="43" viewBox="0 0 48 43" fill="none" xmlns="http://www.w3.org/2000/svg">
<path fill-rule="evenodd" clip-rule="evenodd" d="M23.8069 0.0032959C23.9689 -0.0098877 24.1333 0.0164795 24.2854 0.0823975L47.1723 9.99255C48.1682 10.4237 47.8603 11.91 46.7749 11.91H1.00125C-0.0840726 11.91 -0.392056 10.4237 0.603916 9.99255L23.4908 0.0823975C23.5321 0.0645752 23.5743 0.0494385 23.6171 0.0374756C23.6794 0.0198975 23.743 0.00842285 23.8069 0.0032959ZM25.8881 7.91003C25.8881 9.01453 24.9927 9.91003 23.8881 9.91003C22.7835 9.91003 21.8881 9.01453 21.8881 7.91003C21.8881 6.80554 22.7835 5.91003 23.8881 5.91003C24.9927 5.91003 25.8881 6.80554 25.8881 7.91003Z" fill="black"/>
<path d="M23.1335 22.6859V20.4164C23.0546 20.4274 22.9794 20.4418 22.9079 20.4596C22.8221 20.4808 22.7415 20.507 22.6662 20.538C22.4242 20.6339 22.2386 20.7682 22.1093 20.9406C22.0419 21.0328 21.9926 21.132 21.9612 21.2374C21.934 21.329 21.9204 21.4257 21.9204 21.5272C21.9137 21.7096 21.9519 21.8685 22.0347 22.0045C22.1209 22.1405 22.2386 22.2579 22.3877 22.3575C22.5369 22.4535 22.7093 22.5382 22.9048 22.611C22.9792 22.6373 23.0553 22.6622 23.1335 22.6859Z" fill="black"/>
<path d="M23.9488 27.2223C24.1393 27.1964 24.3134 27.1527 24.4709 27.0905C24.7426 26.9843 24.953 26.8368 25.1022 26.6481C25.2514 26.4591 25.326 26.2421 25.326 25.9967C25.326 25.8829 25.3091 25.7784 25.2755 25.6827C25.2632 25.6473 25.2486 25.6134 25.2316 25.5804C25.2019 25.5233 25.1656 25.4698 25.1221 25.42C25.0662 25.3544 24.9991 25.2928 24.9207 25.2355C24.8605 25.1913 24.7937 25.1495 24.7205 25.1102C24.6629 25.0795 24.6012 25.0502 24.5354 25.0223L24.5058 25.0099L24.4572 24.9899C24.3063 24.9291 24.1369 24.8715 23.9488 24.817V27.2223Z" fill="black"/>
<path fill-rule="evenodd" clip-rule="evenodd" d="M7.88773 13.91H39.8877V33.91H7.88773V13.91ZM23.1335 30.1827V29.0433C22.4822 29.0077 21.9038 28.8851 21.3983 28.6764C20.7919 28.4244 20.3179 28.0516 19.9765 27.5577C19.6385 27.0607 19.4611 26.4457 19.4445 25.7133H21.5276C21.5508 26.0546 21.6486 26.3397 21.821 26.5685C21.9966 26.7938 22.2303 26.9645 22.522 27.0804C22.6385 27.1251 22.7609 27.1608 22.8893 27.1876C22.9684 27.2042 23.0498 27.2174 23.1335 27.2274V24.6078L22.4872 24.4454C21.6287 24.2367 20.951 23.9103 20.4538 23.4662C19.9566 23.0221 19.7098 22.4237 19.713 21.6715C19.7098 21.0548 19.8738 20.5162 20.2052 20.0555C20.54 19.5948 20.9991 19.2352 21.5823 18.9767C22.0486 18.7701 22.5656 18.6461 23.1335 18.6046V17.4554H23.9488V18.6002C24.5486 18.6368 25.0822 18.7623 25.5497 18.9767C26.1164 19.2352 26.5573 19.5948 26.8721 20.0555C27.1869 20.5162 27.3494 21.0499 27.3593 21.6564H25.2961C25.2564 21.2555 25.0856 20.944 24.7841 20.7218C24.5634 20.5594 24.2849 20.4564 23.9488 20.4127V22.8898L24.446 23.0087C24.89 23.1083 25.2978 23.2408 25.669 23.4064C26.0402 23.5721 26.3617 23.776 26.6335 24.0179C26.9053 24.2599 27.1158 24.545 27.2648 24.8732C27.3592 25.0763 27.425 25.2977 27.4622 25.5377C27.4683 25.577 27.4737 25.6168 27.4782 25.6571C27.4908 25.7679 27.4976 25.8829 27.4986 26.0016C27.4952 26.6249 27.3361 27.1649 27.0213 27.6224C26.7098 28.0765 26.2589 28.4296 25.669 28.6813C25.1797 28.8885 24.6064 29.0096 23.9488 29.0441V30.1827H23.1335Z" fill="black"/>
<path d="M1.88773 40.91C1.88773 39.8055 2.78311 38.91 3.88773 38.91H43.8877C44.9923 38.91 45.8877 39.8055 45.8877 40.91C45.8877 42.0145 44.9923 42.91 43.8877 42.91H3.88773C2.78311 42.91 1.88773 42.0145 1.88773 40.91Z" fill="black"/>
<path d="M7.88773 34.91C7.33548 34.91 6.88773 35.3578 6.88773 35.91C6.88773 36.4623 7.33548 36.91 7.88773 36.91H39.8877C40.44 36.91 40.8877 36.4623 40.8877 35.91C40.8877 35.3578 40.44 34.91 39.8877 34.91H7.88773Z" fill="black"/>
</svg>
