<svg width="63" height="65" viewBox="0 0 63 65" fill="none" xmlns="http://www.w3.org/2000/svg">
<path d="M4 6C4 2.68628 6.68628 0 10 0H40C43.3137 0 46 2.68628 46 6V10H4V6Z" fill="black"/>
<path d="M4 36H37.632V43.9639C37.296 43.2065 36.89 42.4075 36.4348 41.6582C36.0247 40.9829 35.5483 40.3044 35.0153 39.7219C34.4993 39.158 33.8278 38.5703 33.0049 38.2332C31.9755 37.8113 30.9651 37.9075 30.0361 38.3796C28.2587 39.2834 27.4702 41.4348 28.3812 43.2786L32.6909 52H4V36Z" fill="black"/>
<path d="M10.0376 22.0789H11.6335C11.9285 22.0789 12.1903 22.0273 12.4191 21.9248C12.5062 21.885 12.5863 21.8389 12.6594 21.7869C12.781 21.7004 12.8832 21.5972 12.9659 21.4773C13.1018 21.2852 13.1698 21.0547 13.1698 20.7861C13.1698 20.4182 13.0388 20.1216 12.777 19.8962C12.5184 19.6709 12.1505 19.5583 11.6733 19.5583H10.0376V22.0789Z" fill="black"/>
<path d="M10.0376 26.24H11.7926C12.3926 26.24 12.8301 26.1257 13.1051 25.897C13.3802 25.665 13.5177 25.3567 13.5177 24.9724C13.5177 24.6907 13.4498 24.4419 13.314 24.2266C13.178 24.0112 12.9841 23.842 12.7323 23.7195C12.4836 23.5969 12.187 23.5354 11.8423 23.5354H10.0376V26.24Z" fill="black"/>
<path fill-rule="evenodd" clip-rule="evenodd" d="M37.632 33H3C1.34314 33 0 31.6567 0 30V15C0 13.3433 1.34314 12 3 12H46C47.6569 12 49 13.3433 49 15V30C49 30.8606 48.6375 31.6367 48.0568 32.1838C47.9312 32.1704 47.8048 32.1636 47.678 32.1636C46.8176 32.1636 46.022 32.4819 45.3933 33H44.808V25.5881C44.808 23.6082 43.2004 22 41.22 22C39.2394 22 37.632 23.6082 37.632 25.5881V33ZM7.88489 17.8181V28H12.2351C12.9974 28 13.6387 27.8774 14.1591 27.6321C14.6794 27.3867 15.0723 27.0537 15.3374 26.6328C15.6058 26.2085 15.7401 25.7263 15.7401 25.186C15.7401 24.6855 15.634 24.2546 15.4219 23.8936C15.2097 23.5288 14.933 23.2456 14.5917 23.0432C14.2535 22.8411 13.8906 22.7317 13.5028 22.7151V22.6157C13.5564 22.6038 13.609 22.5906 13.6608 22.5759C13.73 22.5564 13.7976 22.5347 13.8636 22.5107C13.9486 22.4802 14.0309 22.4458 14.1104 22.4077C14.2286 22.3511 14.3411 22.2861 14.4474 22.2131C14.7258 22.0208 14.9446 21.7756 15.1036 21.4773C15.1586 21.3733 15.204 21.2637 15.24 21.1482C15.2672 21.0605 15.2889 20.9697 15.3053 20.8755C15.33 20.7339 15.3423 20.5847 15.3423 20.4282C15.3423 19.918 15.2164 19.467 14.9645 19.0759C14.7126 18.6816 14.3364 18.3733 13.8359 18.1514C13.3354 17.9292 12.7107 17.8181 11.9617 17.8181H7.88489ZM17.1407 17.8181V28H24.0215V26.2251H19.2935V23.7939H23.6486V22.0193H19.2935V19.593H24.0016V17.8181H17.1407ZM25.3253 17.8181V19.593H28.4425V28H30.5703V19.593H33.6875V17.8181H25.3253Z" fill="black"/>
<path d="M4 56H34.7311C35.1735 56.7134 35.947 57.8411 37.0188 58.9604C38.6566 60.6714 41.2687 62.6479 44.6841 62.6479H44.764C43.6674 64.0779 41.9414 65 40 65H10C6.68628 65 4 62.3137 4 59V56Z" fill="black"/>
<path d="M53.1519 60.6479H44.6823C39.4518 60.6479 36.1934 54.563 36.0758 54.3389L30.1725 42.3926C29.7651 41.5681 30.1027 40.5886 30.9409 40.1624C31.403 39.9275 31.8051 39.9036 32.2448 40.0837C33.9982 40.8025 35.7195 44.2668 36.392 46.2803L36.9022 47.8171L39.6301 46.8521V25.5881C39.6301 24.7124 40.3424 24 41.2181 24C42.0939 24 42.8062 24.7124 42.8062 25.5881V43.9036H46.0111V35.8574C46.0111 34.9709 46.8047 34.1636 47.6761 34.1636C48.5786 34.1636 49.3701 34.9058 49.3701 35.7517V44.4331H52.5463V38.9277C52.5463 38.052 53.2585 37.3396 54.1343 37.3396C55.01 37.3396 55.7223 38.052 55.7223 38.9277V45.9153H58.8984V42.4214C58.8984 41.5457 59.6107 40.8335 60.4865 40.8335C61.3622 40.8335 62.0746 41.5457 62.0746 42.4214V44.6929H62.0819L62.0873 51.6489C62.087 56.6111 58.0786 60.6479 53.1519 60.6479Z" fill="black"/>
</svg>
